<svg xmlns="http://www.w3.org/2000/svg" xmlns:xlink="http://www.w3.org/1999/xlink" width="500" zoomAndPan="magnify" viewBox="0 0 375 374.999991" height="500" preserveAspectRatio="xMidYMid meet" version="1.0"><defs><g/><clipPath id="3aa63648fc"><path d="M 56.488281 151.464844 L 318.238281 151.464844 L 318.238281 223.464844 L 56.488281 223.464844 Z M 56.488281 151.464844 " clip-rule="nonzero"/></clipPath><clipPath id="d5a4ced788"><path d="M 63.558594 158.238281 L 145.816406 158.238281 L 145.816406 216.761719 L 63.558594 216.761719 Z M 63.558594 158.238281 " clip-rule="nonzero"/></clipPath><clipPath id="0cb89a47a5"><path d="M 83.027344 165.914062 L 126.527344 165.914062 L 126.527344 209.414062 L 83.027344 209.414062 Z M 83.027344 165.914062 " clip-rule="nonzero"/></clipPath></defs><rect x="-37.5" width="450" fill="#ffffff" y="-37.499999" height="449.999989" fill-opacity="1"/><rect x="-37.5" width="450" fill="#ffffff" y="-37.499999" height="449.999989" fill-opacity="1"/><rect x="-37.5" width="450" fill="#ffffff" y="-37.499999" height="449.999989" fill-opacity="1"/><g clip-path="url(#3aa63648fc)"><path stroke-linecap="butt" transform="matrix(0.750202, 0, 0, 0.749268, 56.489269, 151.465449)" fill="none" stroke-linejoin="miter" d="M -0.00131637 -0.000808127 L 348.904932 -0.000808127 L 348.904932 96.092952 L -0.00131637 96.092952 L -0.00131637 -0.000808127 " stroke="#d73c4e" stroke-width="6" stroke-opacity="1" stroke-miterlimit="4"/></g><g clip-path="url(#d5a4ced788)"><path fill="#faac50" d="M 63.558594 158.238281 L 146.023438 158.238281 L 146.023438 216.84375 L 63.558594 216.84375 Z M 63.558594 158.238281 " fill-opacity="1" fill-rule="nonzero"/></g><g fill="#d73c4e" fill-opacity="1"><g transform="translate(146.928351, 196.499987)"><g><path d="M 2.003906 0 L 7.476562 0 L 7.476562 -7.175781 L 9.859375 -7.175781 L 13.488281 0 L 19.824219 0 L 14.839844 -9.207031 C 15.410156 -9.886719 15.925781 -10.777344 16.359375 -11.890625 L 19.175781 -18.957031 L 13.242188 -18.957031 L 11.539062 -14.21875 C 10.96875 -12.566406 10.34375 -12.160156 8.394531 -12.160156 L 7.476562 -12.160156 L 7.476562 -18.957031 L 2.003906 -18.957031 Z M 2.003906 0 "/></g></g></g><g fill="#d73c4e" fill-opacity="1"><g transform="translate(167.402402, 196.499987)"><g><path d="M 11.238281 0.40625 C 17.277344 0.40625 21.558594 -3.683594 21.558594 -9.480469 C 21.558594 -15.273438 17.277344 -19.363281 11.238281 -19.363281 C 5.199219 -19.363281 0.921875 -15.273438 0.921875 -9.480469 C 0.921875 -3.683594 5.199219 0.40625 11.238281 0.40625 Z M 6.472656 -9.480469 C 6.472656 -12.324219 8.449219 -14.300781 11.238281 -14.300781 C 14.054688 -14.300781 16.003906 -12.324219 16.003906 -9.480469 C 16.003906 -6.636719 14.054688 -4.65625 11.238281 -4.65625 C 8.449219 -4.65625 6.472656 -6.636719 6.472656 -9.480469 Z M 6.472656 -9.480469 "/></g></g></g><g fill="#d73c4e" fill-opacity="1"><g transform="translate(189.907619, 196.499987)"><g><path d="M 2.003906 0 L 7.421875 0 L 7.421875 -9.667969 L 14.625 0 L 19.066406 0 L 19.066406 -18.957031 L 13.675781 -18.957031 L 13.675781 -9.34375 L 6.472656 -18.957031 L 2.003906 -18.957031 Z M 2.003906 0 "/></g></g></g><g fill="#d73c4e" fill-opacity="1"><g transform="translate(211.00456, 196.499987)"><g><path d="M 2.003906 0 L 15.300781 0 L 15.300781 -4.46875 L 7.421875 -4.46875 L 7.421875 -7.394531 L 14.273438 -7.394531 L 14.273438 -11.78125 L 7.421875 -11.78125 L 7.421875 -14.542969 L 15.003906 -14.542969 L 15.003906 -18.957031 L 2.003906 -18.957031 Z M 2.003906 0 "/></g></g></g><g fill="#d73c4e" fill-opacity="1"><g transform="translate(227.524632, 196.499987)"><g><path d="M 2.003906 0 L 7.476562 0 L 7.476562 -7.175781 L 9.859375 -7.175781 L 13.488281 0 L 19.824219 0 L 14.839844 -9.207031 C 15.410156 -9.886719 15.925781 -10.777344 16.359375 -11.890625 L 19.175781 -18.957031 L 13.242188 -18.957031 L 11.539062 -14.21875 C 10.96875 -12.566406 10.34375 -12.160156 8.394531 -12.160156 L 7.476562 -12.160156 L 7.476562 -18.957031 L 2.003906 -18.957031 Z M 2.003906 0 "/></g></g></g><g fill="#d73c4e" fill-opacity="1"><g transform="translate(247.998684, 196.499987)"><g><path d="M 6.527344 0 L 11.96875 0 L 11.96875 -13.894531 L 17.738281 -13.894531 L 17.738281 -18.957031 L 0.757812 -18.957031 L 0.757812 -13.894531 L 6.527344 -13.894531 Z M 6.527344 0 "/></g></g></g><g fill="#d73c4e" fill-opacity="1"><g transform="translate(266.495745, 196.499987)"><g><path d="M 2.003906 0 L 15.300781 0 L 15.300781 -4.46875 L 7.421875 -4.46875 L 7.421875 -7.394531 L 14.273438 -7.394531 L 14.273438 -11.78125 L 7.421875 -11.78125 L 7.421875 -14.542969 L 15.003906 -14.542969 L 15.003906 -18.957031 L 2.003906 -18.957031 Z M 2.003906 0 "/></g></g></g><g fill="#d73c4e" fill-opacity="1"><g transform="translate(283.015817, 196.499987)"><g><path d="M 2.003906 0 L 7.421875 0 L 7.421875 -9.613281 L 11.078125 -4.496094 L 14.625 -4.496094 L 18.253906 -9.585938 L 18.253906 0 L 23.671875 0 L 23.671875 -18.957031 L 19.230469 -18.957031 L 12.835938 -9.9375 L 6.472656 -18.957031 L 2.003906 -18.957031 Z M 2.003906 0 "/></g></g></g><g clip-path="url(#0cb89a47a5)"><path fill="#ffffff" d="M 104.8125 200.085938 C 111.578125 200.085938 117.527344 203.664062 120.726562 209.109375 L 120.949219 209.410156 L 126.527344 203.8125 C 120.28125 194.710938 108.902344 190.3125 97.972656 193.21875 L 100.351562 189.042969 L 107.042969 177.480469 C 108.605469 177.554688 110.167969 177.703125 111.726562 178.003906 L 104.8125 165.917969 L 89.125 193.144531 L 83.027344 203.738281 L 88.675781 209.410156 L 88.824219 209.109375 C 92.097656 203.664062 98.046875 200.085938 104.8125 200.085938 Z M 104.8125 200.085938 " fill-opacity="1" fill-rule="evenodd"/></g><path fill="#ffffff" d="M 109.199219 189.042969 C 113.289062 189.640625 117.082031 191.058594 120.503906 193.144531 C 120.355469 189.191406 121.023438 185.164062 122.585938 181.285156 C 123.03125 180.164062 123.550781 179.046875 124.144531 177.925781 L 115.59375 177.925781 C 115 179.34375 114.554688 180.761719 114.109375 182.179688 C 112.695312 181.808594 111.28125 181.507812 109.796875 181.285156 L 105.554688 188.746094 C 106.746094 188.746094 108.011719 188.894531 109.199219 189.042969 Z M 109.199219 189.042969 " fill-opacity="1" fill-rule="evenodd"/></svg>